<svg width="130" height="130" viewBox="0 0 130 130" fill="none" xmlns="http://www.w3.org/2000/svg">
<g clip-path="url(#clip0_200_7624)">
<path d="M65 119.167C94.9154 119.167 119.167 94.9154 119.167 64.9999C119.167 35.0845 94.9154 10.8333 65 10.8333C35.0846 10.8333 10.8333 35.0845 10.8333 64.9999C10.8333 94.9154 35.0846 119.167 65 119.167Z" stroke="#F4F2FE" stroke-width="21.6667"/>
<path d="M21.6667 65C21.6667 53.5073 26.2321 42.4853 34.3587 34.3587C42.4853 26.2321 53.5073 21.6667 65 21.6667V0C29.1038 0 0 29.1038 0 65H21.6667ZM32.5 93.6596C25.5028 85.7543 21.6483 75.5571 21.6667 65H0C0 81.4775 6.14792 96.5467 16.25 107.997L32.5 93.6596Z" fill="#7C3AEC"/>
</g>
<defs>
<clipPath id="clip0_200_7624">
<rect width="130" height="130" fill="white"/>
</clipPath>
</defs>
</svg>
