<svg width="138" height="30" viewBox="0 0 138 30" fill="none" xmlns="http://www.w3.org/2000/svg">
<g clip-path="url(#clip0_162_6979)">
<path fill-rule="evenodd" clip-rule="evenodd" d="M92.75 11C92.75 8.37665 94.8765 6.25 97.5 6.25C100.124 6.25 102.25 8.37665 102.25 11C102.25 13.6234 100.124 15.75 97.5 15.75H96C95.0335 15.75 94.25 16.5335 94.25 17.5C94.25 18.4665 95.0335 19.25 96 19.25H97.5C102.056 19.25 105.75 15.5564 105.75 11C105.75 6.44365 102.056 2.75 97.5 2.75C92.9435 2.75 89.25 6.44365 89.25 11V26C89.25 26.9665 90.0335 27.75 91 27.75C91.9665 27.75 92.75 26.9665 92.75 26V11ZM38.75 6C38.75 5.0335 37.9665 4.25 37 4.25C36.0335 4.25 35.25 5.0335 35.25 6V19C35.25 23.8325 39.1675 27.75 44 27.75C48.8325 27.75 52.75 23.8325 52.75 19V6C52.75 5.0335 51.9665 4.25 51 4.25C50.0335 4.25 49.25 5.0335 49.25 6V19C49.25 21.8995 46.8995 24.25 44 24.25C41.1005 24.25 38.75 21.8995 38.75 19V6ZM66.75 25.5C66.75 26.4665 67.5335 27.25 68.5 27.25C69.4665 27.25 70.25 26.4665 70.25 25.5V18.75C70.25 14.3317 66.6685 10.75 62.25 10.75C57.8315 10.75 54.25 14.3317 54.25 18.75V25.5C54.25 26.4665 55.0335 27.25 56 27.25C56.9665 27.25 57.75 26.4665 57.75 25.5V18.75C57.75 16.2647 59.7645 14.25 62.25 14.25C64.7355 14.25 66.75 16.2647 66.75 18.75V25.5ZM109 27.75C108.034 27.75 107.25 26.9665 107.25 26V14C107.25 13.0335 108.034 12.25 109 12.25C109.966 12.25 110.75 13.0335 110.75 14V26C110.75 26.9665 109.966 27.75 109 27.75ZM107 9.25C107 10.2165 107.784 11 108.75 11C109.716 11 110.5 10.2165 110.5 9.25C110.5 8.2835 109.716 7.5 108.75 7.5C107.784 7.5 107 8.2835 107 9.25ZM125.25 27.75C124.284 27.75 123.5 26.9665 123.5 26V18.125C123.5 16.2611 121.989 14.75 120.125 14.75C118.261 14.75 116.75 16.2611 116.75 18.125V26C116.75 26.9665 115.966 27.75 115 27.75C114.034 27.75 113.25 26.9665 113.25 26V18.125C113.25 14.3281 116.328 11.25 120.125 11.25C122.161 11.25 123.991 12.1355 125.25 13.5424C126.509 12.1355 128.339 11.25 130.375 11.25C134.172 11.25 137.25 14.3281 137.25 18.125V26C137.25 26.9665 136.466 27.75 135.5 27.75C134.534 27.75 133.75 26.9665 133.75 26V18.125C133.75 16.2611 132.239 14.75 130.375 14.75C128.511 14.75 127 16.2611 127 18.125V26C127 26.9665 126.216 27.75 125.25 27.75ZM79.5 14.75C76.8765 14.75 74.75 16.8767 74.75 19.5C74.75 22.1234 76.8765 24.25 79.5 24.25C82.1235 24.25 84.25 22.1234 84.25 19.5C84.25 16.8767 82.1235 14.75 79.5 14.75ZM71.25 19.5C71.25 14.9437 74.9435 11.25 79.5 11.25C84.0565 11.25 87.75 14.9437 87.75 19.5C87.75 24.0564 84.0565 27.75 79.5 27.75C74.9435 27.75 71.25 24.0564 71.25 19.5Z" fill="#F4F2FE"/>
<path fill-rule="evenodd" clip-rule="evenodd" d="M10 0C4.47715 0 0 4.47715 0 10V22.5H15V15H22.5V0H10Z" fill="#8B5CF6"/>
<path d="M15 7.5C15 3.35786 18.3579 0 22.5 0C26.6421 0 30 3.35786 30 7.5C30 11.6421 26.6421 15 22.5 15H15V7.5Z" fill="#4DCCBD"/>
<path d="M15 22.5C15 26.6421 11.6421 30 7.5 30C3.35786 30 -3.62116e-07 26.6421 0 22.5C3.6212e-07 18.3579 3.35786 15 7.5 15H15V22.5Z" fill="#414361"/>
<path fill-rule="evenodd" clip-rule="evenodd" d="M10 0C4.47715 0 0 4.47715 0 10V22.5H15V15H22.5V0H10Z" fill="#8B5CF6"/>
<path d="M15 7.5C15 3.35786 18.3579 0 22.5 0C26.6421 0 30 3.35786 30 7.5C30 11.6421 26.6421 15 22.5 15H15V7.5Z" fill="#4DCCBD"/>
<path d="M15 22.5C15 26.6421 11.6421 30 7.5 30C3.35786 30 -3.62116e-07 26.6421 0 22.5C3.6212e-07 18.3579 3.35786 15 7.5 15H15V22.5Z" fill="#F4F2FE"/>
</g>
<defs>
<clipPath id="clip0_162_6979">
<rect width="137.5" height="30" fill="white"/>
</clipPath>
</defs>
</svg>
