<svg width="382" height="114" viewBox="0 0 382 114" fill="none" xmlns="http://www.w3.org/2000/svg">
<rect width="381.624" height="113.829" fill="#F4F2FE"/>
<path d="M122.213 102.324C126.302 94.3452 128.241 89.0231 133.582 85.8312M146.167 82.3106C140.536 83.3914 136.487 84.0956 133.582 85.8312M133.582 85.8312C134.727 85.2248 136.438 79.9779 135.189 76.3493" stroke="#374151" stroke-linecap="round"/>
<path opacity="0.89" d="M145.282 51.1036C138.72 57.2578 140.406 58.4075 136.898 62.5317M126.939 68.2142C131.908 67.0655 134.722 65.0911 136.898 62.5317M136.898 62.5317C136.115 62.9067 134.238 63.5473 133 63.1088" stroke="#334155" stroke-linecap="round"/>
<path opacity="0.89" d="M143.763 52.9573C140.379 58.79 137.678 60.1035 137.155 65.9601M145.176 73.1595C143.784 67.9233 136.87 69.1447 137.155 65.9601M137.155 65.9601C137.109 67.1828 133.614 71.2316 130.013 71.6581" stroke="#475569" stroke-linecap="round"/>
<path d="M123 102.5C128.381 93.2943 127.671 91.4884 133 80.9996C135.456 74.7442 133.967 64.3994 138.742 59.4999C139.919 58.2922 138.909 53.9032 141 53.5" stroke="#1F2937" stroke-width="2" stroke-linecap="round"/>
<path d="M124.902 102.362C125.804 94.3312 128.867 89.963 129.95 85.2219M128.686 75.0001C130.531 79.1939 130.622 82.2797 129.95 85.2219M129.95 85.2219C129.799 84.4562 129.251 82.7612 128.27 82.1065" stroke="#44403C" stroke-linecap="round"/>
<path d="M138 60.4999C145 39 170.197 22.9186 190.722 40.7281C195.729 45.0721 200.664 53.0715 203.19 61.3761M203.19 61.3761C206.398 71.9239 205.72 82.964 196.364 87.6323C190.384 90.6155 187.118 81.7155 187.965 77.9953C189.504 71.2393 192.357 67.0701 198.232 63.5527C199.921 62.5415 201.572 61.8317 203.19 61.3761ZM203.19 61.3761C215.739 57.8424 226.31 69.5965 237.297 74.6212C253.395 81.9835 277.362 82.6817 294 76.5462M129 90C126.5 97.5 123.295 101.713 117.42 105.23C102.632 114.084 89.1062 99.3768 76.703 93.7042C60.6051 86.3419 36.6382 85.6437 20 91.7792" stroke="#6B7280" stroke-width="6" stroke-linecap="round"/>
<path d="M140.96 95.3722L141.474 92.8627C141.484 92.8131 141.456 92.7638 141.408 92.7478L138.978 91.9379L141.487 92.4516C141.537 92.4618 141.586 92.4333 141.602 92.3853L142.412 89.9552L141.898 92.4646C141.888 92.5142 141.917 92.5635 141.965 92.5795L144.395 93.3894L141.885 92.8757C141.836 92.8656 141.786 92.8941 141.77 92.9421L140.96 95.3722Z" fill="#374151"/>
<path d="M114.456 75.4324L119.632 74.7729C119.683 74.7664 119.721 74.7217 119.719 74.6699L119.52 69.4562L120.18 74.6319C120.186 74.6833 120.231 74.7211 120.283 74.7192L125.496 74.52L120.321 75.1795C120.269 75.186 120.231 75.2307 120.233 75.2825L120.433 80.4962L119.773 75.3205C119.767 75.2691 119.722 75.2313 119.67 75.2332L114.456 75.4324Z" fill="#374151"/>
<path d="M139.11 75.2898L141.278 75.0993C141.38 75.0903 141.458 75.0057 141.46 74.9033L141.496 72.7277L141.686 74.8953C141.695 74.9973 141.78 75.0761 141.882 75.0777L144.058 75.1134L141.89 75.3039C141.788 75.3129 141.709 75.3975 141.708 75.4999L141.672 77.6755L141.482 75.5079C141.473 75.4059 141.388 75.3271 141.286 75.3255L139.11 75.2898Z" fill="#374151"/>
<path d="M156.873 80.3699L156.994 82.393C157 82.4941 157.081 82.5746 157.182 82.5807L159.205 82.702L157.182 82.8233C157.081 82.8294 157 82.9099 156.994 83.011L156.873 85.0341L156.751 83.011C156.745 82.9099 156.665 82.8294 156.564 82.8233L154.541 82.702L156.564 82.5807C156.665 82.5746 156.745 82.4941 156.751 82.393L156.873 80.3699Z" fill="#374151"/>
<path d="M126.282 58.4682L129.541 59.4556C129.59 59.4703 129.642 59.4465 129.662 59.4002L131.032 56.282L130.044 59.5415C130.03 59.5899 130.053 59.6417 130.1 59.662L133.218 61.0319L129.958 60.0445C129.91 60.0298 129.858 60.0536 129.838 60.0999L128.468 63.2181L129.456 59.9586C129.47 59.9102 129.446 59.8584 129.4 59.838L126.282 58.4682Z" fill="#374151"/>
<path d="M281.466 25.5576L306.602 16.2842L332.562 86.6483L307.426 95.9217C287.995 103.09 266.433 93.1499 259.264 73.7194C252.096 54.2889 262.036 32.7261 281.466 25.5576Z" fill="white" stroke="#6B7280" stroke-width="2"/>
<mask id="mask0_190_7360" style="mask-type:alpha" maskUnits="userSpaceOnUse" x="255" y="15" width="79" height="85">
<path d="M258.326 74.0655C250.966 54.1169 261.172 31.9791 281.12 24.6194L307.194 14.9999L333.846 87.2404L307.772 96.8599C287.823 104.22 265.686 94.0142 258.326 74.0655V74.0655Z" fill="white"/>
</mask>
<g mask="url(#mask0_190_7360)">
<path d="M294.633 22.9999C265.033 35.3999 261.5 65.5 263 79C251 58.5 262.5 39.9999 271 32.4999C277.8 26.4999 295.5 20 294.633 22.9999Z" fill="#E4E6EA"/>
</g>
<path d="M310.197 6.85651L298.414 10.7295C296.3 11.4241 294.582 13.0872 294.017 15.3127C289.446 33.3277 290.063 69.5578 324.218 93.3465C325.836 94.4735 327.871 94.807 329.759 94.3357L336.687 92.606C342.382 91.1842 348.404 88.2556 349.977 82.0457C352.311 72.8313 351.785 57.9969 347.457 43.6367C343.127 29.272 334.929 15.1712 321.719 7.63614C318.164 5.60835 313.942 5.62584 310.197 6.85651Z" fill="white" stroke="#6B7280" stroke-width="2"/>
<path d="M345.208 42.3266C349.304 53.8192 350.877 64.9338 350.145 73.5918C349.405 82.3485 346.365 88.1781 341.69 89.8446C337.014 91.5112 330.973 88.9183 324.861 82.604C318.818 76.3608 313.006 66.7574 308.909 55.2648C304.813 43.7721 303.24 32.6576 303.972 23.9996C304.712 15.2429 307.751 9.41325 312.427 7.74673C317.102 6.0802 323.144 8.67303 329.256 14.9874C335.299 21.2305 341.111 30.834 345.208 42.3266Z" fill="white" stroke="#6B7280" stroke-width="2"/>
<path d="M342.841 30.5C345.492 29.1746 348.657 21.3481 342.459 18.9354M343.192 31.4363L343.242 31.4179L343.288 31.3944C344.304 30.8867 345.22 29.7842 345.874 28.5528C346.544 27.2924 347.023 25.7411 347.046 24.1785C347.065 22.8137 346.734 21.4046 345.839 20.2063L346.354 20.5233C349.706 22.586 351.157 26.713 349.833 30.4193C348.993 32.7713 347.142 34.6223 344.79 35.4623L315.981 45.7519C315.698 45.8527 315.413 45.8166 315.198 45.6766C314.354 45.127 313.034 44.2004 311.944 43.1553L331.653 35.764L339.885 32.6767L342.313 31.7662L342.966 31.5213L343.135 31.4579L343.178 31.4417L343.189 31.4377L343.191 31.4367L343.192 31.4364C343.192 31.4364 343.192 31.4363 342.841 30.5L343.192 31.4363ZM311.104 41.334C311.058 39.5222 311.302 37.3979 311.667 35.327C312.118 32.7631 312.739 30.3677 313.148 28.9075C313.315 28.316 313.773 27.843 314.386 27.6405L339.614 19.3065C341.83 19.5353 343.161 20.2324 343.938 21.0494C344.734 21.8865 345.063 22.9693 345.046 24.1497C345.029 25.3416 344.656 26.5832 344.108 27.6146C343.56 28.6459 342.915 29.3251 342.434 29.5845L342.433 29.5852L342.264 29.6486L341.61 29.8936L339.183 30.804L330.95 33.8913L311.104 41.334Z" fill="white" stroke="#4B5563" stroke-width="2"/>
<ellipse cx="338.186" cy="25.7331" rx="3.5" ry="2.19807" transform="rotate(-17.6957 338.186 25.7331)" fill="white" stroke="#4B5563" stroke-width="2"/>
<path d="M365.841 55.5C368.492 54.1746 371.657 46.3481 365.459 43.9354M366.192 56.4363L366.242 56.4179L366.288 56.3944C367.304 55.8867 368.22 54.7842 368.874 53.5528C369.544 52.2924 370.023 50.7411 370.046 49.1785C370.065 47.8137 369.734 46.4046 368.839 45.2063L369.354 45.5233C372.706 47.586 374.157 51.713 372.833 55.4193C371.993 57.7713 370.142 59.6223 367.79 60.4623L338.981 70.7519C338.698 70.8527 338.413 70.8166 338.198 70.6766C337.354 70.127 336.034 69.2004 334.944 68.1553L354.653 60.764L362.885 57.6767L365.313 56.7662L365.966 56.5213L366.135 56.4579L366.178 56.4417L366.189 56.4377L366.191 56.4367L366.192 56.4364C366.192 56.4364 366.192 56.4363 365.841 55.5L366.192 56.4363ZM334.104 66.334C334.058 64.5222 334.302 62.3979 334.667 60.327C335.118 57.7631 335.739 55.3677 336.148 53.9075C336.315 53.316 336.773 52.843 337.386 52.6405L362.614 44.3065C364.83 44.5353 366.161 45.2324 366.938 46.0494C367.734 46.8865 368.063 47.9693 368.046 49.1497C368.029 50.3416 367.656 51.5832 367.108 52.6146C366.56 53.6459 365.915 54.3251 365.434 54.5845L365.433 54.5852L365.264 54.6486L364.61 54.8936L362.183 55.804L353.95 58.8913L334.104 66.334Z" fill="white" stroke="#4B5563" stroke-width="2"/>
<ellipse cx="361.186" cy="50.7331" rx="3.5" ry="2.19807" transform="rotate(-17.6957 361.186 50.7331)" fill="white" stroke="#4B5563" stroke-width="2"/>
<mask id="mask1_190_7360" style="mask-type:alpha" maskUnits="userSpaceOnUse" x="293" y="7" width="58" height="87">
<path d="M298.726 11.6795L310.51 7.80652C314.061 6.63916 317.976 6.65233 321.223 8.50476C347.024 23.2219 353.564 63.8105 349.007 81.8002C347.581 87.431 342.081 90.2288 336.445 91.6358L329.516 93.3655C327.896 93.7701 326.16 93.4805 324.789 92.5259C291.092 69.0558 290.478 33.3264 294.987 15.5587C295.459 13.6986 296.903 12.2787 298.726 11.6795Z" fill="white"/>
</mask>
<g mask="url(#mask1_190_7360)">
<path d="M331 93C296.009 74.4339 293.201 31.167 296.499 12.5C287.646 22.5903 292.509 45.2889 297.196 60.4244C301.882 75.5598 324.272 92.7133 326.355 93.7224C328.021 94.5296 330.479 93.6727 331 93Z" fill="#E4E6EA"/>
</g>
</svg>
