<svg width="65" height="64" viewBox="0 0 65 64" fill="none" xmlns="http://www.w3.org/2000/svg">
<path d="M0.22998 12.8C0.22998 5.73076 5.96074 0 13.03 0H51.43C58.4992 0 64.23 5.73076 64.23 12.8V51.2C64.23 58.2692 58.4992 64 51.43 64H13.03C5.96074 64 0.22998 58.2692 0.22998 51.2V12.8Z" fill="#7152F3" fill-opacity="0.2"/>
<path d="M32.73 26C29.9686 26 27.73 23.7614 27.73 21C27.73 18.2386 29.9686 16 32.73 16C35.4914 16 37.73 18.2386 37.73 21C37.73 23.7614 35.4914 26 32.73 26Z" fill="white" fill-opacity="0.7" stroke="#7C3AEC" stroke-width="2"/>
<path d="M20.73 47C17.9686 47 15.73 44.7614 15.73 42C15.73 39.2386 17.9686 37 20.73 37C23.4914 37 25.73 39.2386 25.73 42C25.73 44.7614 23.4914 47 20.73 47Z" fill="white" fill-opacity="0.7" stroke="#7C3AEC" stroke-width="2"/>
<path d="M43.73 47C40.9686 47 38.73 44.7614 38.73 42C38.73 39.2386 40.9686 37 43.73 37C46.4914 37 48.73 39.2386 48.73 42C48.73 44.7614 46.4914 47 43.73 47Z" fill="white" fill-opacity="0.7" stroke="#7C3AEC" stroke-width="2"/>
<path d="M46.73 33.7143C46.73 29.4475 44.8968 25.6177 41.9903 23M18.73 33.7143C18.73 29.4475 20.5631 25.6177 23.4696 23M29.23 47.5499C30.3487 47.8437 31.5214 48 32.73 48C33.9385 48 35.1113 47.8437 36.23 47.5499" stroke="#7C3AEC" stroke-width="2" stroke-linecap="round"/>
</svg>
