<svg width="66" height="64" viewBox="0 0 66 64" fill="none" xmlns="http://www.w3.org/2000/svg">
<path d="M0.22998 12.8C0.22998 5.73076 5.96074 0 13.03 0H52.5066C59.5759 0 65.3066 5.73076 65.3066 12.8V51.2C65.3066 58.2692 59.5759 64 52.5066 64H13.03C5.96073 64 0.22998 58.2692 0.22998 51.2V12.8Z" fill="#7152F3" fill-opacity="0.2"/>
<path d="M16.2683 38.875C16.2683 36.4588 18.2271 34.5 20.6433 34.5H25.8933C28.3096 34.5 30.2683 36.4588 30.2683 38.875V44.125C30.2683 46.5412 28.3096 48.5 25.8933 48.5H20.6433C18.2271 48.5 16.2683 46.5412 16.2683 44.125V38.875Z" fill="white" fill-opacity="0.7" stroke="#7C3AEC" stroke-width="1.5"/>
<path d="M22.1258 15.2232L15.9915 21.3575C15.3606 21.9885 15.3606 23.0115 15.9915 23.6425L22.1258 29.7768C22.7568 30.4077 23.7798 30.4077 24.4108 29.7768L30.5451 23.6425C31.1761 23.0115 31.1761 21.9885 30.5451 21.3575L24.4108 15.2232C23.7798 14.5923 22.7568 14.5923 22.1258 15.2232Z" fill="white" fill-opacity="0.7" stroke="#7C3AEC" stroke-width="1.5"/>
<path d="M42.2683 48.5C38.4023 48.5 35.2683 45.366 35.2683 41.5C35.2683 37.634 38.4023 34.5 42.2683 34.5C46.1343 34.5 49.2683 37.634 49.2683 41.5C49.2683 45.366 46.1343 48.5 42.2683 48.5Z" fill="white" fill-opacity="0.7" stroke="#7C3AEC" stroke-width="1.5"/>
<rect x="35.2683" y="15.5" width="14" height="14" rx="1" fill="white" fill-opacity="0.7" stroke="#7C3AEC" stroke-width="1.5"/>
</svg>
