<svg width="65" height="64" viewBox="0 0 65 64" fill="none" xmlns="http://www.w3.org/2000/svg">
<path d="M0.0766602 12.8C0.0766602 5.73076 5.80742 0 12.8767 0H51.2767C58.3459 0 64.0767 5.73076 64.0767 12.8V51.2C64.0767 58.2692 58.3459 64 51.2767 64H12.8767C5.80742 64 0.0766602 58.2692 0.0766602 51.2V12.8Z" fill="#7152F3" fill-opacity="0.2"/>
<path d="M47.6695 13.5H21.5767V31.3824H47.6695C48.0633 31.3824 48.3025 30.9483 48.0922 30.6154L43.2669 22.9752C43.0608 22.649 43.0608 22.2334 43.2669 21.9072L48.0922 14.267C48.3025 13.9341 48.0633 13.5 47.6695 13.5Z" fill="white" fill-opacity="0.7"/>
<path d="M48.0922 14.267L48.7264 14.6675L48.7264 14.6675L48.0922 14.267ZM43.2669 21.9072L42.6327 21.5067L42.6327 21.5067L43.2669 21.9072ZM43.2669 22.9752L42.6327 23.3757L42.6327 23.3757L43.2669 22.9752ZM48.0922 30.6154L48.7264 30.2149L48.7264 30.2149L48.0922 30.6154ZM22.3267 11.5C22.3267 11.0858 21.9909 10.75 21.5767 10.75C21.1624 10.75 20.8267 11.0858 20.8267 11.5H22.3267ZM21.5767 14.25H47.6695V12.75H21.5767V14.25ZM47.4581 13.8665L42.6327 21.5067L43.901 22.3077L48.7264 14.6675L47.4581 13.8665ZM42.6327 23.3757L47.4581 31.0159L48.7264 30.2149L43.901 22.5747L42.6327 23.3757ZM22.3267 47.5V31.3824H20.8267V47.5H22.3267ZM22.3267 31.3824V13.5H20.8267V31.3824H22.3267ZM47.6695 30.6324H21.5767V32.1324H47.6695V30.6324ZM22.3267 13.5V11.5H20.8267V13.5H22.3267ZM47.4581 31.0158C47.353 30.8494 47.4726 30.6324 47.6695 30.6324V32.1324C48.6539 32.1324 49.252 31.0472 48.7264 30.2149L47.4581 31.0158ZM42.6327 21.5067C42.2722 22.0775 42.2722 22.8048 42.6327 23.3757L43.901 22.5747C43.8495 22.4931 43.8495 22.3892 43.901 22.3077L42.6327 21.5067ZM47.6695 14.25C47.4726 14.25 47.353 14.033 47.4581 13.8665L48.7264 14.6675C49.252 13.8352 48.6539 12.75 47.6695 12.75V14.25Z" fill="#7C3AEC"/>
<path d="M20.1221 48.25H24.0312C26.028 48.25 27.6646 49.7919 27.8153 51.75H16.338C16.4888 49.7919 18.1254 48.25 20.1221 48.25Z" fill="#F3E6FF" stroke="#7C3AEC" stroke-width="1.5"/>
</svg>
