<svg width="66" height="64" viewBox="0 0 66 64" fill="none" xmlns="http://www.w3.org/2000/svg">
<path d="M0.0766602 12.8C0.0766602 5.73076 5.80742 0 12.8767 0H52.3533C59.4225 0 65.1533 5.73076 65.1533 12.8V51.2C65.1533 58.2692 59.4225 64 52.3533 64H12.8767C5.80741 64 0.0766602 58.2692 0.0766602 51.2V12.8Z" fill="#7152F3" fill-opacity="0.2"/>
<path d="M27.8071 46.8622L21.733 46.6448C21.7169 46.6442 21.7009 46.6433 21.6849 46.6421C21.0208 46.5931 20.5091 46.027 20.5331 45.3558L20.5336 45.3412L20.6698 41.5348L21.2322 25.8195C21.2444 25.4785 21.3929 25.1569 21.6436 24.9284L26.2574 19.2793C26.273 19.2603 26.2874 19.2418 26.3027 19.2226C26.4926 18.9832 27.8868 17.3214 29.2809 18.2507L37.1826 22.6257C37.593 22.8529 37.8974 23.2324 38.0302 23.6823L43.3759 41.7978C43.6538 42.7395 43.119 43.7289 42.179 44.0124L30.5131 47.5299C30.0454 47.6709 29.5404 47.6142 29.1157 47.3728L28.6253 47.0941C28.3752 46.952 28.0945 46.8725 27.8071 46.8622Z" fill="white" fill-opacity="0.7"/>
<path d="M21.733 46.6448L27.8071 46.8622C28.0945 46.8725 28.3752 46.952 28.6253 47.0941L29.1157 47.3728C29.5404 47.6142 30.0454 47.6709 30.5131 47.5299L42.179 44.0124C43.119 43.7289 43.6538 42.7395 43.3759 41.7978L38.0302 23.6823C37.8974 23.2324 37.593 22.8529 37.1826 22.6257L29.2809 18.2507C27.8868 17.3214 26.4926 18.9832 26.3027 19.2226C26.2874 19.2418 26.273 19.2603 26.2574 19.2793L21.6436 24.9284M21.733 46.6448C21.0457 46.6202 20.5087 46.0366 20.5336 45.3412M21.733 46.6448V46.6448C21.0457 46.6202 20.5085 46.0431 20.5331 45.3558L20.5336 45.3412M20.5336 45.3412L20.6698 41.5348L21.2322 25.8195M21.2322 25.8195C21.2444 25.4785 21.3929 25.1569 21.6436 24.9284M21.2322 25.8195V25.8195C21.2444 25.4803 21.3927 25.157 21.6436 24.9284V24.9284" stroke="#6D28D8" stroke-width="1.5"/>
<path d="M29.4893 18.3898L37.4589 22.8226L37.5553 22.8763C37.7903 23.007 37.9627 23.2267 38.0337 23.4861L38.0637 23.5956L42.2744 38.9726L43.2229 42.4362L43.2915 42.6868C43.4373 43.2195 43.1238 43.7695 42.5911 43.9154L42.3545 43.9802L36.0701 45.7011L29.7857 47.4219L29.5491 47.4867C29.0164 47.6326 28.4664 47.319 28.3205 46.7863L28.2519 46.5357L27.2459 42.8621L23.0927 27.6951L23.0627 27.5856C22.9917 27.3263 23.0281 27.0493 23.1637 26.8171L23.2194 26.7218L27.8187 18.8472L27.9362 18.6461C28.2106 18.1763 28.8103 18.0121 29.2858 18.2766L29.4893 18.3898Z" fill="white" fill-opacity="0.7"/>
<path d="M29.4893 18.3898L37.4589 22.8226M29.4893 18.3898C28.8988 18.0613 28.1596 18.2637 27.8187 18.8472M29.4893 18.3898L29.2858 18.2766C28.8103 18.0121 28.2106 18.1763 27.9362 18.6461L27.8187 18.8472M37.4589 22.8226C37.7553 22.9875 37.9736 23.2664 38.0637 23.5956M37.4589 22.8226L37.5553 22.8763C37.7903 23.007 37.9627 23.2267 38.0337 23.4861L38.0637 23.5956M38.0637 23.5956L42.2744 38.9726L43.2229 42.4362M43.2229 42.4362C43.4066 43.1073 43.0179 43.7985 42.3545 43.9802M43.2229 42.4362L43.2915 42.6868C43.4373 43.2195 43.1238 43.7695 42.5911 43.9154L42.3545 43.9802M42.3545 43.9802L36.0701 45.7011L29.7857 47.4219M29.7857 47.4219C29.1223 47.6036 28.4356 47.2068 28.2519 46.5357M29.7857 47.4219L29.5491 47.4867C29.0164 47.6326 28.4664 47.319 28.3205 46.7863L28.2519 46.5357M28.2519 46.5357L27.2459 42.8621L23.0927 27.6951M23.0927 27.6951C23.0026 27.366 23.0483 27.0148 23.2194 26.7218M23.0927 27.6951L23.0627 27.5856C22.9917 27.3263 23.0281 27.0493 23.1637 26.8171L23.2194 26.7218M23.2194 26.7218L27.8187 18.8472" stroke="#6D28D8" stroke-width="1.5"/>
<circle cx="30.9988" cy="27.2507" r="2.5" fill="#F3E6FF" fill-opacity="0.7" stroke="#6D28D8" stroke-width="1.31763"/>
</svg>
