<svg width="66" height="64" viewBox="0 0 66 64" fill="none" xmlns="http://www.w3.org/2000/svg">
<path d="M0.15332 12.8C0.15332 5.73076 5.88408 0 12.9533 0H52.43C59.4992 0 65.23 5.73076 65.23 12.8V51.2C65.23 58.2692 59.4992 64 52.43 64H12.9533C5.88407 64 0.15332 58.2692 0.15332 51.2V12.8Z" fill="#7152F3" fill-opacity="0.2"/>
<path d="M49.1034 37.5709L33.3905 48.1571C32.9962 48.4227 32.4804 48.4234 32.0854 48.1587L16.299 37.5795C16.1749 37.4963 16.1749 37.3138 16.299 37.2306L20.3997 34.4817C20.4706 34.4343 20.563 34.4343 20.6338 34.4819L31.787 41.977C32.3627 42.3639 33.1151 42.3647 33.6916 41.979L44.8929 34.4856C44.9644 34.4377 45.0579 34.4384 45.1287 34.4871L45.5518 33.8724L45.1287 34.4871L49.1051 37.2237C49.2271 37.3077 49.2262 37.4881 49.1034 37.5709Z" fill="white" fill-opacity="0.7" stroke="#7C3AEC" stroke-width="1.5"/>
<path d="M49.0288 31.6212L33.3905 42.1571C32.9962 42.4228 32.4804 42.4234 32.0854 42.1587L16.3617 31.6215C16.2341 31.536 16.2385 31.3468 16.37 31.2673L20.684 28.6607C20.754 28.6184 20.8421 28.6206 20.9099 28.6662L31.7832 35.9862C32.3618 36.3758 33.119 36.3748 33.6966 35.9839L44.5056 28.6682C44.5736 28.6222 44.6622 28.6201 44.7324 28.6627L49.0205 31.2675C49.1514 31.3471 49.1558 31.5356 49.0288 31.6212Z" fill="white" fill-opacity="0.7" stroke="#7C3AEC" stroke-width="1.5"/>
<path d="M16.37 25.2674L32.1319 15.7435C32.5048 15.5182 32.972 15.5187 33.3444 15.7449L49.0205 25.2675C49.1514 25.3471 49.1558 25.5356 49.0288 25.6212L33.3905 36.1571C32.9962 36.4228 32.4804 36.4234 32.0854 36.1588L16.3617 25.6215C16.2341 25.536 16.2385 25.3468 16.37 25.2674Z" fill="white" fill-opacity="0.7" stroke="#7C3AEC" stroke-width="1.5"/>
</svg>
