<svg width="66" height="64" viewBox="0 0 66 64" fill="none" xmlns="http://www.w3.org/2000/svg">
<path d="M0.306641 12.8C0.306641 5.73076 6.0374 0 13.1066 0H52.5833C59.6525 0 65.3833 5.73076 65.3833 12.8V51.2C65.3833 58.2692 59.6525 64 52.5833 64H13.1066C6.03739 64 0.306641 58.2692 0.306641 51.2V12.8Z" fill="#7152F3" fill-opacity="0.2"/>
<rect x="17.345" y="16" width="31" height="32" rx="2" fill="white" fill-opacity="0.7" stroke="#7C3AEC" stroke-width="1.5"/>
<path d="M38.345 32.0741V16H27.345V32.0488C27.345 32.3861 27.345 32.5547 27.4228 32.6148C27.4552 32.6398 27.4945 32.6542 27.5354 32.6562C27.6336 32.6609 27.7429 32.5325 27.9615 32.2756L31.6374 27.9567C32.0762 27.4411 32.2957 27.1833 32.5707 27.1209C32.6892 27.0941 32.8121 27.093 32.931 27.1178C33.2071 27.1753 33.4311 27.4292 33.879 27.9369L37.7325 32.3056C37.9505 32.5528 38.0595 32.6763 38.1568 32.6706C38.1973 32.6682 38.2362 32.6535 38.2682 32.6285C38.345 32.5684 38.345 32.4036 38.345 32.0741Z" fill="#F3E6FF" fill-opacity="0.7" stroke="#7C3AEC" stroke-width="1.5"/>
</svg>
