<svg width="66" height="64" viewBox="0 0 66 64" fill="none" xmlns="http://www.w3.org/2000/svg">
<path d="M0 12.8C0 5.73076 5.73076 0 12.8 0H52.2766C59.3459 0 65.0766 5.73076 65.0766 12.8V51.2C65.0766 58.2692 59.3459 64 52.2766 64H12.8C5.73075 64 0 58.2692 0 51.2V12.8Z" fill="#7152F3" fill-opacity="0.2"/>
<path fill-rule="evenodd" clip-rule="evenodd" d="M38.2353 22.0858L29.3873 17.2402C28.7317 16.8811 27.9154 17.1104 27.5426 17.7584L22.5121 26.5026C22.325 26.8278 22.277 27.2167 22.3791 27.5801L27.0836 44.3275L35.3816 42.1216L43.6796 39.9157L38.91 22.9364C38.8079 22.573 38.5644 22.266 38.2353 22.0858Z" fill="white" fill-opacity="0.7"/>
<path d="M44.7539 43.7401L43.6796 39.9157L35.3816 42.1216L27.0836 44.3275L28.223 48.3838C28.4312 49.1248 29.1937 49.5587 29.9261 49.353L36.8654 47.4037L43.8046 45.4544C44.5371 45.2486 44.9621 44.4811 44.7539 43.7401Z" fill="white" fill-opacity="0.7"/>
<path d="M27.0836 44.3275L28.223 48.3838M27.0836 44.3275L22.3791 27.5801M27.0836 44.3275L35.3816 42.1216L43.6796 39.9157M43.6796 39.9157L38.91 22.9364M43.6796 39.9157L44.7539 43.7401M29.3873 17.2402L38.2353 22.0858M29.3873 17.2402C28.7317 16.8811 27.9154 17.1104 27.5426 17.7584M29.3873 17.2402V17.2402C28.7338 16.8823 27.9141 17.1126 27.5426 17.7584V17.7584M38.2353 22.0858C38.5644 22.266 38.8079 22.573 38.91 22.9364M38.2353 22.0858V22.0858C38.5646 22.2661 38.8084 22.5749 38.91 22.9364V22.9364M44.7539 43.7401C44.9621 44.4811 44.5371 45.2486 43.8046 45.4544M44.7539 43.7401L44.7583 43.7556C44.964 44.4881 44.5371 45.2486 43.8046 45.4544V45.4544M43.8046 45.4544L36.8654 47.4037L29.9261 49.353M29.9261 49.353C29.1937 49.5587 28.4312 49.1248 28.223 48.3838M29.9261 49.353V49.353C29.1937 49.5587 28.4331 49.1318 28.2274 48.3993L28.223 48.3838M22.3791 27.5801C22.277 27.2167 22.325 26.8278 22.5121 26.5026M22.3791 27.5801V27.5801C22.2775 27.2186 22.3249 26.828 22.5121 26.5026V26.5026M22.5121 26.5026L27.5426 17.7584" stroke="#6D28D8" stroke-width="1.5"/>
<circle cx="30.7371" cy="25.5643" r="2.34146" transform="rotate(-15.6906 30.7371 25.5643)" fill="#F3E6FF" stroke="#6D28D8" stroke-width="1.5"/>
</svg>
