<svg width="65" height="64" viewBox="0 0 65 64" fill="none" xmlns="http://www.w3.org/2000/svg">
<path d="M0.15332 12.8C0.15332 5.73076 5.88408 0 12.9533 0H51.3533C58.4226 0 64.1533 5.73076 64.1533 12.8V51.2C64.1533 58.2692 58.4226 64 51.3533 64H12.9533C5.88408 64 0.15332 58.2692 0.15332 51.2V12.8Z" fill="#7152F3" fill-opacity="0.2"/>
<circle cx="32.1533" cy="32" r="15.25" fill="white" fill-opacity="0.7" stroke="#7C3AEC" stroke-width="1.5"/>
<path d="M42.1533 31.7143C42.1533 28.6422 40.8439 25.8847 38.7678 24M22.1533 31.7143C22.1533 28.6422 23.4627 25.8847 25.5388 24" stroke="#F3E6FF" stroke-width="1.5" stroke-linecap="round"/>
<path d="M36.5776 42C34.0252 43.1608 30.9746 43.2722 28.1533 42.0565" stroke="#F3E6FF" stroke-width="1.5" stroke-linecap="round"/>
<path d="M32.1533 37V38V39" stroke="#7C3AEC" stroke-width="1.5" stroke-linecap="round"/>
<path d="M32.1533 25V26V27" stroke="#7C3AEC" stroke-width="1.5" stroke-linecap="round"/>
<path d="M35.1533 29.5C35.1533 28.1193 33.8102 27 32.1533 27C30.4965 27 29.1533 28.1193 29.1533 29.5C29.1533 30.8807 30.4965 32 32.1533 32C33.8102 32 35.1533 33.1193 35.1533 34.5C35.1533 35.8807 33.8102 37 32.1533 37C30.4965 37 29.1533 35.8807 29.1533 34.5" stroke="#7C3AEC" stroke-width="1.5" stroke-linecap="round"/>
</svg>
