<svg width="256" height="256" viewBox="0 0 256 256" fill="none" xmlns="http://www.w3.org/2000/svg">
<rect width="256" height="256" fill="white"/>
<path d="M61.7729 61.7758C50.4131 73.1357 50.4131 91.429 50.4131 127.999C50.4131 164.578 50.4131 182.863 61.7729 194.223C73.1328 205.583 91.4261 205.583 127.996 205.583C164.575 205.583 182.86 205.583 194.22 194.223C205.58 182.863 205.58 164.57 205.58 127.999C205.58 91.4208 205.58 73.1357 194.22 61.7758C182.86 50.416 164.567 50.416 127.996 50.416C91.4179 50.416 73.1328 50.416 61.7729 61.7758Z" stroke="#6D28D8" stroke-width="6" stroke-linecap="round" stroke-linejoin="round"/>
<path d="M136.163 148.416C136.163 153.831 134.012 159.024 130.184 162.853C126.355 166.682 121.162 168.833 115.747 168.833C110.332 168.833 105.139 166.682 101.31 162.853C97.4811 159.024 95.3301 153.831 95.3301 148.416C95.3301 143.001 97.4811 137.808 101.31 133.979C105.139 130.15 110.332 127.999 115.747 127.999C121.162 127.999 126.355 130.15 130.184 133.979C134.012 137.808 136.163 143.001 136.163 148.416ZM136.163 148.416V87.166C138.883 91.2493 141.063 108.399 160.663 111.666" stroke="#6D28D8" stroke-width="6" stroke-linecap="round" stroke-linejoin="round"/>
</svg>
