<svg width="301" height="206" viewBox="0 0 301 206" fill="none" xmlns="http://www.w3.org/2000/svg">
<g clip-path="url(#clip0_1530_14862)">
<rect width="301" height="206" fill="#F4F2FE"/>
<path d="M117.562 70.563C111.998 76.127 111.998 85.087 111.998 102.999C111.998 120.915 111.998 129.871 117.562 135.435C123.126 140.999 132.086 140.999 149.998 140.999C167.914 140.999 176.87 140.999 182.434 135.435C187.998 129.871 187.998 120.911 187.998 102.999C187.998 85.083 187.998 76.127 182.434 70.563C176.87 64.999 167.91 64.999 149.998 64.999C132.082 64.999 123.126 64.999 117.562 70.563Z" stroke="#6D28D8" stroke-width="4" stroke-linecap="round" stroke-linejoin="round"/>
<path d="M153.998 112.999C153.998 115.651 152.944 118.195 151.069 120.07C149.194 121.945 146.65 122.999 143.998 122.999C141.346 122.999 138.802 121.945 136.927 120.07C135.052 118.195 133.998 115.651 133.998 112.999C133.998 110.347 135.052 107.803 136.927 105.928C138.802 104.053 141.346 102.999 143.998 102.999C146.65 102.999 149.194 104.053 151.069 105.928C152.944 107.803 153.998 110.347 153.998 112.999ZM153.998 112.999V82.999C155.33 84.999 156.398 93.399 165.998 94.999" stroke="#6D28D8" stroke-width="4" stroke-linecap="round" stroke-linejoin="round"/>
</g>
<defs>
<clipPath id="clip0_1530_14862">
<rect width="301" height="206" fill="white"/>
</clipPath>
</defs>
</svg>
