<svg width="301" height="206" viewBox="0 0 301 206" fill="none" xmlns="http://www.w3.org/2000/svg">
<g clip-path="url(#clip0_1530_14824)">
<rect width="301" height="206" fill="#F4F2FE"/>
<path d="M144.176 111.064C143.992 107.096 141.284 107 137.604 107C131.94 107 131 108.352 131 113.668V120.332C131 125.648 131.94 127 137.604 127C141.284 127 143.996 126.904 144.176 122.936M187 107L181.148 122.648C180.06 125.548 179.52 127 178.66 127C177.8 127 177.26 125.548 176.172 122.648L170.32 107M161.884 107H157.996C156.44 107 155.664 107 155.052 107.252C152.964 108.116 152.992 110.148 152.992 112C152.992 113.852 152.964 115.88 155.052 116.748C155.664 117 156.44 117 157.996 117C159.548 117 160.328 117 160.94 117.252C163.028 118.116 163 120.148 163 122C163 123.852 163.028 125.88 160.94 126.748C160.328 127 159.548 127 157.996 127H153.756M163 143H145.908C132.868 143 126.34 143 121.812 139.808C120.523 138.904 119.372 137.82 118.392 136.588C115 132.324 115 126.188 115 113.908V103.728C115 91.876 115 85.948 116.876 81.216C119.892 73.604 126.268 67.604 134.356 64.764C139.38 63 145.672 63 158.272 63C165.464 63 169.064 63 171.936 64.008C176.556 65.632 180.2 69.06 181.924 73.408C183 76.112 183 79.5 183 86.272V95M115 103C115 99.4641 116.405 96.0731 118.905 93.5729C121.405 91.0726 124.796 89.668 128.332 89.668C130.996 89.668 134.136 90.132 136.724 89.44C137.855 89.1357 138.886 88.5394 139.714 87.711C140.541 86.8826 141.137 85.8511 141.44 84.72C142.132 82.132 141.668 78.992 141.668 76.328C141.669 72.7928 143.074 69.4028 145.574 66.9034C148.074 64.4041 151.465 63 155 63" stroke="#6D28D8" stroke-width="4" stroke-linecap="round" stroke-linejoin="round"/>
</g>
<defs>
<clipPath id="clip0_1530_14824">
<rect width="301" height="206" fill="white"/>
</clipPath>
</defs>
</svg>
