<svg width="256" height="256" viewBox="0 0 256 256" fill="none" xmlns="http://www.w3.org/2000/svg">
<rect width="256" height="256" fill="white"/>
<path d="M114.068 144.463C113.692 136.362 108.163 136.166 100.65 136.166C89.0862 136.166 87.167 138.926 87.167 149.78V163.386C87.167 174.239 89.0862 176.999 100.65 176.999C108.163 176.999 113.7 176.803 114.068 168.702M201.5 136.166L189.553 168.114C187.331 174.035 186.229 176.999 184.473 176.999C182.717 176.999 181.614 174.035 179.393 168.114L167.445 136.166M150.222 136.166H142.284C139.107 136.166 137.523 136.166 136.273 136.681C132.01 138.445 132.067 142.593 132.067 146.374C132.067 150.156 132.01 154.296 136.273 156.068C137.523 156.583 139.107 156.583 142.284 156.583C145.452 156.583 147.045 156.583 148.294 157.097C152.557 158.861 152.5 163.01 152.5 166.791C152.5 170.572 152.557 174.713 148.294 176.485C147.045 176.999 145.452 176.999 142.284 176.999H133.627" stroke="#6D28D8" stroke-width="6" stroke-linecap="round" stroke-linejoin="round"/>
<path d="M152.5 209.666H117.604C90.9805 209.666 77.6525 209.666 68.4078 203.149C65.7769 201.304 63.4253 199.09 61.4253 196.575C54.5 187.869 54.5 175.342 54.5 150.27V129.486C54.5 105.288 54.5 93.1852 58.3302 83.524C64.4878 67.9828 77.5055 55.7328 94.0185 49.9345C104.276 46.333 117.122 46.333 142.847 46.333C157.531 46.333 164.881 46.333 170.744 48.391C180.177 51.7067 187.617 58.7055 191.136 67.5827C193.333 73.1033 193.333 80.0205 193.333 93.8467V111.666" stroke="#6D28D8" stroke-width="6" stroke-linecap="round" stroke-linejoin="round"/>
<path d="M54.5 128C54.5 120.781 57.3678 113.857 62.4724 108.753C67.5771 103.648 74.5004 100.78 81.7195 100.78C87.1585 100.78 93.5693 101.728 98.8532 100.315C101.162 99.6933 103.267 98.4759 104.957 96.7846C106.647 95.0932 107.862 92.9873 108.482 90.678C109.894 85.3942 108.947 78.9833 108.947 73.5443C108.949 66.3267 111.818 59.4054 116.922 54.3025C122.027 49.1996 128.949 46.333 136.167 46.333" stroke="#6D28D8" stroke-width="6" stroke-linecap="round" stroke-linejoin="round"/>
</svg>
