<svg width="256" height="256" viewBox="0 0 256 256" fill="none" xmlns="http://www.w3.org/2000/svg">
<rect width="256" height="256" fill="white"/>
<path d="M158.023 49.1338V61.3838C158.023 72.9315 158.023 78.7053 161.617 82.2905C165.194 85.8838 170.968 85.8838 182.523 85.8838H194.773" stroke="#6D28D8" stroke-width="6" stroke-linecap="round" stroke-linejoin="round"/>
<path d="M100.856 118.551H166.189M100.856 143.051H166.189M100.856 167.551H134.911M68.1895 159.384V94.0508C68.1895 70.9554 68.1895 59.3996 75.368 52.2293C82.5383 45.0508 94.0941 45.0508 117.189 45.0508H151.261C154.593 45.0508 156.267 45.0508 157.77 45.6714C159.264 46.2921 160.448 47.4681 162.808 49.8364L194.07 81.0984C196.439 83.4668 197.615 84.6428 198.235 86.1454C198.856 87.6399 198.856 89.3141 198.856 92.6461V159.384C198.856 182.479 198.856 194.035 191.678 201.206C184.507 208.384 172.951 208.384 149.856 208.384H117.189C94.0941 208.384 82.5383 208.384 75.368 201.206C68.1895 194.035 68.1895 182.479 68.1895 159.384Z" stroke="#6D28D8" stroke-width="6" stroke-linecap="round" stroke-linejoin="round"/>
</svg>
