<svg width="301" height="206" viewBox="0 0 301 206" fill="none" xmlns="http://www.w3.org/2000/svg">
<g clip-path="url(#clip0_1530_14767)">
<rect width="301" height="206" fill="#F4F2FE"/>
<path d="M164.705 64.3721V70.3721C164.705 76.0281 164.705 78.8561 166.465 80.6121C168.217 82.3721 171.045 82.3721 176.705 82.3721H182.705" stroke="#6D28D8" stroke-width="4" stroke-linecap="round" stroke-linejoin="round"/>
<path d="M136.705 98.3721H168.705M136.705 110.372H168.705M136.705 122.372H153.385M120.705 118.372V86.3721C120.705 75.0601 120.705 69.4001 124.221 65.8881C127.733 62.3721 133.393 62.3721 144.705 62.3721H161.393C163.025 62.3721 163.845 62.3721 164.581 62.6761C165.313 62.9801 165.893 63.5561 167.049 64.7161L182.361 80.0281C183.521 81.1881 184.097 81.7641 184.401 82.5001C184.705 83.2321 184.705 84.0521 184.705 85.6841V118.372C184.705 129.684 184.705 135.344 181.189 138.856C177.677 142.372 172.017 142.372 160.705 142.372H144.705C133.393 142.372 127.733 142.372 124.221 138.856C120.705 135.344 120.705 129.684 120.705 118.372Z" stroke="#6D28D8" stroke-width="4" stroke-linecap="round" stroke-linejoin="round"/>
</g>
<defs>
<clipPath id="clip0_1530_14767">
<rect width="301" height="206" fill="white"/>
</clipPath>
</defs>
</svg>
