<svg width="301" height="206" viewBox="0 0 301 206" fill="none" xmlns="http://www.w3.org/2000/svg">
<g clip-path="url(#clip0_1530_14795)">
<rect width="301" height="206" fill="#F4F2FE"/>
<path d="M131.998 90.999C135.312 90.999 137.998 88.3127 137.998 84.999C137.998 81.6853 135.312 78.999 131.998 78.999C128.684 78.999 125.998 81.6853 125.998 84.999C125.998 88.3127 128.684 90.999 131.998 90.999Z" stroke="#6D28D8" stroke-width="4" stroke-linecap="round" stroke-linejoin="round"/>
<path d="M117.562 70.563C111.998 76.127 111.998 85.087 111.998 102.999C111.998 120.915 111.998 129.871 117.562 135.435C123.126 140.999 132.086 140.999 149.998 140.999C167.914 140.999 176.87 140.999 182.434 135.435C187.998 129.871 187.998 120.911 187.998 102.999C187.998 85.083 187.998 76.127 182.434 70.563C176.87 64.999 167.91 64.999 149.998 64.999C132.082 64.999 123.126 64.999 117.562 70.563Z" stroke="#6D28D8" stroke-width="4" stroke-linecap="round" stroke-linejoin="round"/>
<path d="M120.002 133C137.492 112.1 157.102 84.5368 186.002 103.169" stroke="#6D28D8" stroke-width="4" stroke-linecap="round" stroke-linejoin="round"/>
</g>
<defs>
<clipPath id="clip0_1530_14795">
<rect width="301" height="206" fill="white"/>
</clipPath>
</defs>
</svg>
