<svg width="256" height="256" viewBox="0 0 256 256" fill="none" xmlns="http://www.w3.org/2000/svg">
<rect width="256" height="256" fill="white"/>
<path d="M91.2461 103.499C98.0116 103.499 103.496 98.0145 103.496 91.249C103.496 84.4835 98.0116 78.999 91.2461 78.999C84.4806 78.999 78.9961 84.4835 78.9961 91.249C78.9961 98.0145 84.4806 103.499 91.2461 103.499Z" stroke="#6D28D8" stroke-width="6" stroke-linecap="round" stroke-linejoin="round"/>
<path d="M61.7719 61.7758C50.4121 73.1357 50.4121 91.429 50.4121 127.999C50.4121 164.578 50.4121 182.863 61.7719 194.223C73.1318 205.583 91.4251 205.583 127.995 205.583C164.574 205.583 182.859 205.583 194.219 194.223C205.579 182.863 205.579 164.57 205.579 127.999C205.579 91.4208 205.579 73.1357 194.219 61.7758C182.859 50.416 164.566 50.416 127.995 50.416C91.4169 50.416 73.1318 50.416 61.7719 61.7758Z" stroke="#6D28D8" stroke-width="6" stroke-linecap="round" stroke-linejoin="round"/>
<path d="M66.7539 189.251C102.463 146.581 142.501 90.3054 201.504 128.345" stroke="#6D28D8" stroke-width="6" stroke-linecap="round" stroke-linejoin="round"/>
</svg>
