<svg width="301" height="206" viewBox="0 0 301 206" fill="none" xmlns="http://www.w3.org/2000/svg">
<g clip-path="url(#clip0_1530_14811)">
<rect width="301" height="206" fill="#F4F2FE"/>
<path d="M163 65V71C163 76.656 163 79.484 164.76 81.24C166.512 83 169.34 83 175 83H181M151 99V111M151 111V123M151 111H133M151 111H169M119 119V87C119 75.688 119 70.028 122.516 66.516C126.028 63 131.688 63 143 63H159.688C161.32 63 162.14 63 162.876 63.304C163.608 63.608 164.188 64.184 165.344 65.344L180.656 80.656C181.816 81.816 182.392 82.392 182.696 83.128C183 83.86 183 84.68 183 86.312V119C183 130.312 183 135.972 179.484 139.484C175.972 143 170.312 143 159 143H143C131.688 143 126.028 143 122.516 139.484C119 135.972 119 130.312 119 119ZM141 123H161C164.772 123 166.656 123 167.828 121.828C169 120.656 169 118.772 169 115V107C169 103.228 169 101.344 167.828 100.172C166.656 99 164.772 99 161 99H141C137.228 99 135.344 99 134.172 100.172C133 101.344 133 103.228 133 107V115C133 118.772 133 120.656 134.172 121.828C135.344 123 137.228 123 141 123Z" stroke="#6D28D8" stroke-width="4" stroke-linecap="round" stroke-linejoin="round"/>
</g>
<defs>
<clipPath id="clip0_1530_14811">
<rect width="301" height="206" fill="white"/>
</clipPath>
</defs>
</svg>
