<svg width="256" height="256" viewBox="0 0 256 256" fill="none" xmlns="http://www.w3.org/2000/svg">
<rect width="256" height="256" fill="white"/>
<path d="M152.5 50.416V62.666C152.5 74.2137 152.5 79.9875 156.093 83.5727C159.67 87.166 165.444 87.166 177 87.166H189.25" stroke="#6D28D8" stroke-width="6" stroke-linecap="round" stroke-linejoin="round"/>
<path d="M62.667 160.666V95.333C62.667 72.2377 62.667 60.6818 69.8455 53.5115C77.0158 46.333 88.5717 46.333 111.667 46.333H145.738C149.07 46.333 150.744 46.333 152.247 46.9537C153.742 47.5743 154.926 48.7503 157.286 51.1187L188.548 82.3807C190.916 84.749 192.092 85.925 192.713 87.4277C193.334 88.9222 193.334 90.5963 193.334 93.9283V160.666C193.334 183.762 193.334 195.317 186.155 202.488C178.985 209.666 167.429 209.666 144.334 209.666H111.667C88.5717 209.666 77.0158 209.666 69.8455 202.488C62.667 195.317 62.667 183.762 62.667 160.666Z" stroke="#6D28D8" stroke-width="6" stroke-linecap="round" stroke-linejoin="round"/>
<path d="M128 119.833V144.333M128 144.333V168.833M128 144.333H91.25M128 144.333H164.75M107.583 168.833H148.417C156.118 168.833 159.964 168.833 162.357 166.44C164.75 164.047 164.75 160.201 164.75 152.5V136.166C164.75 128.465 164.75 124.619 162.357 122.226C159.964 119.833 156.118 119.833 148.417 119.833H107.583C99.8822 119.833 96.0357 119.833 93.6428 122.226C91.25 124.619 91.25 128.465 91.25 136.166V152.5C91.25 160.201 91.25 164.047 93.6428 166.44C96.0357 168.833 99.8822 168.833 107.583 168.833Z" stroke="#6D28D8" stroke-width="6" stroke-linecap="round" stroke-linejoin="round"/>
</svg>
