<svg width="301" height="206" viewBox="0 0 301 206" fill="none" xmlns="http://www.w3.org/2000/svg">
<g clip-path="url(#clip0_1530_14838)">
<rect x="-24" y="-16" width="349" height="238" fill="#F4F2FE"/>
<path d="M116.984 91.8167C116.984 76.838 116.984 69.3466 121.93 64.6953C126.875 60.044 134.831 60.04 150.747 60.04H153.817C166.766 60.04 173.249 60.04 177.745 63.2098M184.51 88.929V99.0379C184.51 110.807 184.51 116.694 182.647 121.393M165.289 137.73C160.296 139.482 154.048 139.482 141.536 139.482C134.394 139.482 130.819 139.482 127.967 138.481C123.379 136.868 119.761 133.464 118.049 129.146C116.984 126.461 116.984 125.052 116.984 121.393" stroke="#6D28D8" stroke-width="4" stroke-linecap="round" stroke-linejoin="round"/>
<g clip-path="url(#clip1_1530_14838)">
<path d="M170.535 135.51C170.535 131.427 170.535 129.384 171.804 128.115C173.072 126.847 175.114 126.847 179.199 126.847C183.282 126.847 185.325 126.847 186.594 128.115C187.862 129.384 187.862 131.426 187.862 135.51C187.862 139.594 187.862 141.637 186.594 142.905C185.325 144.174 183.283 144.174 179.199 144.174C175.115 144.174 173.072 144.174 171.804 142.905C170.535 141.637 170.535 139.595 170.535 135.51Z" stroke="#6D28D8" stroke-width="4" stroke-linecap="round" stroke-linejoin="round"/>
<path d="M181.998 134C182.55 134 182.998 133.552 182.998 133C182.998 132.448 182.55 132 181.998 132C181.446 132 180.998 132.448 180.998 133C180.998 133.552 181.446 134 181.998 134Z" fill="#6D28D8" stroke="#6D28D8" stroke-width="4" stroke-linecap="round" stroke-linejoin="round"/>
<path d="M182.847 143.536C182.059 138.097 173.655 136.948 171.174 137.26" stroke="#6D28D8" stroke-width="4" stroke-linecap="round" stroke-linejoin="round"/>
</g>
<path d="M184.51 99.7607C184.51 103.272 183.115 106.639 180.632 109.122C178.149 111.605 174.782 113 171.271 113C168.626 113 165.507 112.539 162.937 113.226C161.815 113.528 160.792 114.119 159.97 114.941C159.148 115.763 158.556 116.787 158.254 117.909C157.567 120.479 158.028 123.597 158.028 126.243C158.028 127.981 157.686 129.703 157.02 131.309C156.355 132.915 155.38 134.375 154.15 135.604C152.921 136.833 151.462 137.808 149.855 138.474C148.249 139.139 146.528 139.482 144.789 139.482" stroke="#6D28D8" stroke-width="4" stroke-linecap="round" stroke-linejoin="round"/>
<path d="M139.561 79.8193H161.934M139.561 89.7494H149.149M139.561 99.7608H161.934" stroke="#6D28D8" stroke-width="4" stroke-linecap="round" stroke-linejoin="round"/>
<path d="M185.03 77.5683C184.881 78.1272 184.625 78.6519 184.278 79.1124C183.93 79.5728 183.498 79.9601 183.005 80.2519C182.512 80.5438 181.968 80.7346 181.404 80.8135C180.841 80.8923 180.268 80.8577 179.72 80.7115C177.419 80.095 176.063 77.6873 176.694 75.3346C176.842 74.7754 177.098 74.2505 177.445 73.7898C177.793 73.3291 178.226 72.9417 178.719 72.6496C179.212 72.3576 179.756 72.1666 180.319 72.0877C180.883 72.0087 181.455 72.0434 182.004 72.1896C184.305 72.8061 185.661 75.2138 185.03 77.5683ZM185.03 77.5683L187.998 66.4896C188.326 67.4883 187.812 71.1877 191.631 72.9416" stroke="#6D28D8" stroke-width="4" stroke-linecap="round" stroke-linejoin="round"/>
<path d="M122.526 102.119L122.63 101.992C124.376 99.8486 125.249 98.7767 126.221 98.9223C127.192 99.0678 127.526 100.316 128.197 102.819L128.572 104.219C129.243 106.722 129.578 107.972 128.809 108.582C128.041 109.194 126.749 108.702 124.165 107.721L124.011 107.661M117.001 114.246L118.025 113.972C121.401 113.067 123.09 112.615 123.892 111.417C124.696 110.217 124.3 108.742 123.508 105.786L123.029 103.996C122.237 101.04 121.841 99.5628 120.545 98.9253C119.251 98.2892 117.563 98.7416 114.186 99.6464L113.163 99.9206C109.786 100.825 108.098 101.278 107.296 102.475C106.492 103.676 106.887 105.151 107.68 108.108L108.159 109.899C108.951 112.852 109.347 114.33 110.643 114.967C111.936 115.603 113.625 115.151 117.001 114.246Z" stroke="#6D28D8" stroke-width="4" stroke-linecap="round" stroke-linejoin="round"/>
</g>
<defs>
<clipPath id="clip0_1530_14838">
<rect width="301" height="206" fill="white"/>
</clipPath>
<clipPath id="clip1_1530_14838">
<rect width="21.887" height="21.887" fill="white" transform="translate(168.256 124.566)"/>
</clipPath>
</defs>
</svg>
