<svg width="256" height="256" viewBox="0 0 256 256" fill="none" xmlns="http://www.w3.org/2000/svg">
<rect width="256" height="256" fill="white"/>
<path d="M67.584 111.666C67.584 80.8698 67.584 65.4675 77.7515 55.9043C87.919 46.3412 104.277 46.333 137.001 46.333H143.313C169.937 46.333 183.265 46.333 192.509 52.85M206.417 105.729V126.513C206.417 150.711 206.417 162.814 202.587 172.475M166.899 206.065C156.633 209.666 143.787 209.666 118.062 209.666C103.378 209.666 96.0285 209.666 90.1648 207.608C80.7323 204.293 73.2925 197.294 69.7727 188.417C67.584 182.896 67.584 180 67.584 172.475" stroke="#6D28D8" stroke-width="6" stroke-linecap="round" stroke-linejoin="round"/>
<path d="M177.688 201.5C177.688 193.104 177.688 188.904 180.296 186.296C182.904 183.688 187.102 183.688 195.5 183.688C203.896 183.688 208.096 183.688 210.704 186.296C213.312 188.904 213.312 193.102 213.312 201.5C213.312 209.896 213.312 214.096 210.704 216.704C208.096 219.312 203.898 219.312 195.5 219.312C187.104 219.312 182.904 219.312 180.296 216.704C177.688 214.096 177.688 209.898 177.688 201.5Z" stroke="#6D28D8" stroke-width="6" stroke-linecap="round" stroke-linejoin="round"/>
<path d="M201.5 200C203.433 200 205 198.433 205 196.5C205 194.567 203.433 193 201.5 193C199.567 193 198 194.567 198 196.5C198 198.433 199.567 200 201.5 200Z" stroke="#6D28D8" stroke-width="6" stroke-linecap="round" stroke-linejoin="round"/>
<path d="M203 218C201.381 206.817 184.102 204.456 179 205.096" stroke="#6D28D8" stroke-width="6" stroke-linecap="round" stroke-linejoin="round"/>
<path d="M206.417 128C206.417 135.219 203.549 142.142 198.444 147.247C193.34 152.352 186.416 155.22 179.197 155.22C173.758 155.22 167.347 154.272 162.064 155.685C159.756 156.306 157.651 157.522 155.962 159.212C154.272 160.901 153.056 163.006 152.435 165.313C151.022 170.597 151.97 177.008 151.97 182.447C151.97 186.022 151.265 189.561 149.898 192.864C148.53 196.166 146.525 199.167 143.997 201.694C141.47 204.222 138.469 206.227 135.166 207.595C131.864 208.963 128.325 209.667 124.75 209.667" stroke="#6D28D8" stroke-width="6" stroke-linecap="round" stroke-linejoin="round"/>
<path d="M114 87H160M114 107.416H133.714M114 128H160" stroke="#6D28D8" stroke-width="6" stroke-linecap="round" stroke-linejoin="round"/>
<path d="M207.487 82.3705C207.181 83.5198 206.655 84.5985 205.941 85.5453C205.226 86.492 204.337 87.2881 203.323 87.8882C202.31 88.4883 201.192 88.8807 200.033 89.0428C198.874 89.2049 197.698 89.1337 196.571 88.8331C191.84 87.5656 189.052 82.6153 190.348 77.778C190.654 76.6284 191.179 75.5491 191.894 74.6019C192.608 73.6547 193.498 72.8582 194.511 72.2577C195.525 71.6572 196.644 71.2646 197.802 71.1024C198.961 70.9401 200.138 71.0113 201.266 71.3119C205.996 72.5794 208.785 77.5297 207.487 82.3705ZM207.487 82.3705L213.591 59.5925C214.264 61.646 213.207 69.252 221.058 72.858" stroke="#6D28D8" stroke-width="6" stroke-linecap="round" stroke-linejoin="round"/>
<path d="M78.9773 132.848L79.1916 132.588C82.782 128.18 84.5772 125.977 86.574 126.276C88.5709 126.575 89.2586 129.142 90.6375 134.288L91.4087 137.166C92.7876 142.312 93.4764 144.883 91.8956 146.136C90.3159 147.394 87.6594 146.383 82.3474 144.365L82.0304 144.243M67.6191 157.782L69.723 157.219C76.6657 155.358 80.137 154.428 81.7863 151.966C83.4386 149.498 82.6257 146.464 80.9977 140.388L80.0111 136.707C78.3831 130.631 77.5691 127.593 74.9043 126.282C72.2449 124.974 68.7735 125.904 61.8308 127.765L59.727 128.328C52.7842 130.189 49.3129 131.119 47.6636 133.581C46.0113 136.049 46.8242 139.082 48.4534 145.163L49.4399 148.844C51.0668 154.916 51.8808 157.954 54.5456 159.265C57.205 160.573 60.6764 159.643 67.6191 157.782Z" stroke="#6D28D8" stroke-width="6" stroke-linecap="round" stroke-linejoin="round"/>
</svg>
