<svg width="256" height="256" viewBox="0 0 256 256" fill="none" xmlns="http://www.w3.org/2000/svg">
<rect width="256" height="256" fill="white"/>
<path d="M168.837 102.732L169.866 101.882C187.147 87.6234 195.787 80.4939 202.729 83.9402C209.67 87.3784 209.67 98.7954 209.67 121.613V134.386C209.67 157.203 209.67 168.62 202.729 172.059C195.787 175.497 187.147 168.375 169.866 154.116L168.837 153.267M46.3369 119.833C46.3369 92.8827 46.3369 79.4077 54.7077 71.0369C63.0786 62.666 76.5536 62.666 103.504 62.666H111.67C138.62 62.666 152.095 62.666 160.466 71.0369C168.837 79.4077 168.837 92.8827 168.837 119.833V136.166C168.837 163.116 168.837 176.591 160.466 184.962C152.095 193.333 138.62 193.333 111.67 193.333H103.504C76.5536 193.333 63.0786 193.333 54.7077 184.962C46.3369 176.591 46.3369 163.116 46.3369 136.166V119.833Z" stroke="#6D28D8" stroke-width="6" stroke-linecap="round" stroke-linejoin="round"/>
<path d="M123.92 119.833C130.685 119.833 136.17 114.348 136.17 107.583C136.17 100.818 130.685 95.333 123.92 95.333C117.154 95.333 111.67 100.818 111.67 107.583C111.67 114.348 117.154 119.833 123.92 119.833Z" stroke="#6D28D8" stroke-width="6" stroke-linecap="round" stroke-linejoin="round"/>
</svg>
