<svg width="301" height="206" viewBox="0 0 301 206" fill="none" xmlns="http://www.w3.org/2000/svg">
<g clip-path="url(#clip0_1530_14780)">
<rect width="301" height="206" fill="#F4F2FE"/>
<path d="M170.002 90.624L170.506 90.208C178.97 83.224 183.202 79.732 186.602 81.42C190.002 83.104 190.002 88.696 190.002 99.872V106.128C190.002 117.304 190.002 122.896 186.602 124.58C183.202 126.264 178.97 122.776 170.506 115.792L170.002 115.376M110.002 99C110.002 85.8 110.002 79.2 114.102 75.1C118.202 71 124.802 71 138.002 71H142.002C155.202 71 161.802 71 165.902 75.1C170.002 79.2 170.002 85.8 170.002 99V107C170.002 120.2 170.002 126.8 165.902 130.9C161.802 135 155.202 135 142.002 135H138.002C124.802 135 118.202 135 114.102 130.9C110.002 126.8 110.002 120.2 110.002 107V99Z" stroke="#6D28D8" stroke-width="4" stroke-linecap="round" stroke-linejoin="round"/>
<path d="M148.002 99C151.316 99 154.002 96.3137 154.002 93C154.002 89.6863 151.316 87 148.002 87C144.688 87 142.002 89.6863 142.002 93C142.002 96.3137 144.688 99 148.002 99Z" stroke="#6D28D8" stroke-width="4" stroke-linecap="round" stroke-linejoin="round"/>
</g>
<defs>
<clipPath id="clip0_1530_14780">
<rect width="301" height="206" fill="white"/>
</clipPath>
</defs>
</svg>
