<svg width="180" height="180" viewBox="0 0 180 180" fill="none" xmlns="http://www.w3.org/2000/svg">
<path fill-rule="evenodd" clip-rule="evenodd" d="M66.9848 24.9701C66.9848 25.5224 67.4325 25.9701 67.9848 25.9701C68.5371 25.9701 68.9848 25.5224 68.9848 24.9701V18.9851H74.9701C75.5224 18.9851 75.9701 18.5374 75.9701 17.9851C75.9701 17.4328 75.5224 16.9851 74.9701 16.9851L68.9848 16.9851V11C68.9848 10.4477 68.5371 10 67.9848 10C67.4325 10 66.9848 10.4477 66.9848 11V16.9851L61 16.9851C60.4477 16.9851 60 17.4328 60 17.9851C60 18.5374 60.4477 18.9851 61 18.9851H66.9848V24.9701Z" fill="#E5E7EB"/>
<path fill-rule="evenodd" clip-rule="evenodd" d="M15.6567 137.313C15.6567 137.866 16.1044 138.313 16.6567 138.313C17.209 138.313 17.6567 137.866 17.6567 137.313V133.657L21.3134 133.657C21.8657 133.657 22.3134 133.209 22.3134 132.657C22.3134 132.104 21.8657 131.657 21.3134 131.657L17.6567 131.657V128C17.6567 127.448 17.209 127 16.6567 127C16.1044 127 15.6567 127.448 15.6567 128V131.657L12 131.657C11.4477 131.657 11 132.104 11 132.657C11 133.209 11.4477 133.657 12 133.657L15.6567 133.657V137.313Z" fill="#E5E7EB"/>
<circle cx="156.493" cy="48.4925" r="3.49254" stroke="#E5E7EB" stroke-width="2"/>
<circle cx="18.0746" cy="59.0746" r="4.07463" stroke="#E5E7EB" stroke-width="2"/>
<circle cx="163.746" cy="113.746" r="1.74627" stroke="#E5E7EB" stroke-width="2"/>
<circle cx="163.343" cy="136.963" r="3.49254" stroke="#E5E7EB" stroke-width="2"/>
<rect x="42" y="40" width="96" height="100" rx="20" fill="white" stroke="#71717A" stroke-width="2"/>
<path fill-rule="evenodd" clip-rule="evenodd" d="M94.6667 84.3332C94.6667 83.7809 94.219 83.3332 93.6667 83.3332H86.3334C85.7811 83.3332 85.3334 83.7809 85.3334 84.3332V98.3332C85.3334 98.8855 84.8857 99.3332 84.3334 99.3332L70.3334 99.3332C69.7811 99.3332 69.3334 99.7809 69.3334 100.333L69.3334 107.667C69.3334 108.219 69.7811 108.667 70.3334 108.667H84.3334C84.8857 108.667 85.3334 109.114 85.3334 109.667V123.667C85.3334 124.219 85.7811 124.667 86.3334 124.667H93.6667C94.219 124.667 94.6667 124.219 94.6667 123.667V109.667C94.6667 109.114 95.1145 108.667 95.6667 108.667H109.667C110.219 108.667 110.667 108.219 110.667 107.667V100.333C110.667 99.7809 110.219 99.3332 109.667 99.3332L95.6667 99.3332C95.1145 99.3332 94.6667 98.8855 94.6667 98.3332V84.3332Z" fill="white"/>
<path d="M95.6667 99.3332L95.6667 100.333L95.6667 99.3332ZM109.667 99.3332L109.667 98.3332L109.667 99.3332ZM70.3334 99.3332L70.3334 100.333L70.3334 99.3332ZM84.3334 99.3332L84.3334 98.3332L84.3334 99.3332ZM86.3334 84.3332H93.6667V82.3332H86.3334V84.3332ZM86.3334 98.3332V84.3332H84.3334V98.3332H86.3334ZM70.3334 100.333L84.3334 100.333L84.3334 98.3332L70.3334 98.3332L70.3334 100.333ZM70.3334 107.667L70.3334 100.333L68.3334 100.333L68.3334 107.667L70.3334 107.667ZM84.3334 107.667H70.3334V109.667H84.3334V107.667ZM86.3334 123.667V109.667H84.3334V123.667H86.3334ZM93.6667 123.667H86.3334V125.667H93.6667V123.667ZM93.6667 109.667V123.667H95.6667V109.667H93.6667ZM109.667 107.667H95.6667V109.667H109.667V107.667ZM109.667 100.333V107.667H111.667V100.333H109.667ZM95.6667 100.333L109.667 100.333L109.667 98.3332L95.6667 98.3332L95.6667 100.333ZM93.6667 84.3332V98.3332H95.6667V84.3332H93.6667ZM95.6667 98.3332L95.6667 98.3332H93.6667C93.6667 99.4378 94.5622 100.333 95.6667 100.333L95.6667 98.3332ZM111.667 100.333C111.667 99.2286 110.771 98.3332 109.667 98.3332L109.667 100.333L109.667 100.333H111.667ZM109.667 109.667C110.771 109.667 111.667 108.771 111.667 107.667H109.667L109.667 107.667V109.667ZM95.6667 109.667H95.6667V107.667C94.5622 107.667 93.6667 108.562 93.6667 109.667H95.6667ZM93.6667 125.667C94.7713 125.667 95.6667 124.771 95.6667 123.667H93.6667H93.6667V125.667ZM84.3334 123.667C84.3334 124.771 85.2288 125.667 86.3334 125.667V123.667L86.3334 123.667H84.3334ZM84.3334 109.667L84.3334 109.667H86.3334C86.3334 108.562 85.438 107.667 84.3334 107.667V109.667ZM68.3334 107.667C68.3334 108.771 69.2288 109.667 70.3334 109.667V107.667L70.3334 107.667L68.3334 107.667ZM70.3334 98.3332C69.2288 98.3332 68.3334 99.2286 68.3334 100.333L70.3334 100.333L70.3334 100.333L70.3334 98.3332ZM84.3334 98.3332L84.3334 98.3332L84.3334 100.333C85.438 100.333 86.3334 99.4378 86.3334 98.3332H84.3334ZM93.6667 84.3332L93.6667 84.3332H95.6667C95.6667 83.2286 94.7713 82.3332 93.6667 82.3332V84.3332ZM86.3334 82.3332C85.2288 82.3332 84.3334 83.2286 84.3334 84.3332H86.3334L86.3334 84.3332V82.3332Z" fill="#71717A"/>
<path d="M104.667 64.3912V40H74.6667V64.2498C74.6667 67.0851 74.6667 68.5028 75.4646 69.1029C75.6392 69.2341 75.834 69.3359 76.0414 69.4042C76.9898 69.7163 78.1534 68.9064 80.4805 67.2866L83.1693 65.4149C85.9329 63.4913 87.3147 62.5295 88.8705 62.3761C89.2289 62.3407 89.5897 62.3377 89.9486 62.3671C91.5068 62.4946 92.9044 63.4333 95.6996 65.3107L98.9037 67.4627C101.217 69.0161 102.373 69.7928 103.31 69.4745C103.515 69.4048 103.708 69.3022 103.88 69.1707C104.667 68.5704 104.667 67.1773 104.667 64.3912Z" fill="white" stroke="#71717A" stroke-width="2"/>
</svg>
